<svg xmlns="http://www.w3.org/2000/svg" width="61" height="60" viewBox="0 0 61 60" fill="none"><path d="M40.7487 47.7781H7.0287C5.40425 47.7781 4.08203 46.4559 4.08203 44.8314V17.7781C4.08203 17.1648 4.57981 16.667 5.19314 16.667H47.4154C48.0287 16.667 48.5265 17.1648 48.5265 17.7781V26.667C48.5265 27.2803 48.0287 27.7781 47.4154 27.7781C46.802 27.7781 46.3043 27.2803 46.3043 26.667V18.8892H6.30425V44.8314C6.30425 45.2314 6.6287 45.5559 7.0287 45.5559H40.7487C41.362 45.5559 41.8598 46.0537 41.8598 46.667C41.8598 47.2803 41.362 47.7781 40.7487 47.7781Z" fill="#D2EF9A"></path><path d="M47.4154 18.8891C47.0242 18.8891 46.6442 18.6824 46.442 18.3135L39.7309 6.13127C39.5376 5.77572 39.1642 5.55572 38.7576 5.55572H13.8509C13.4442 5.55572 13.0709 5.77572 12.8776 6.13127L6.16646 18.3135C5.87091 18.8535 5.19091 19.0424 4.65757 18.7513C4.11979 18.4557 3.92424 17.7779 4.21979 17.2424L10.9309 5.06016C11.5154 3.9935 12.6354 3.3335 13.8509 3.3335H38.7598C39.9753 3.3335 41.0954 3.9935 41.6798 5.05794L48.3887 17.2402C48.6865 17.7779 48.4909 18.4535 47.9531 18.7491C47.782 18.8446 47.5976 18.8891 47.4154 18.8891Z" fill="#D2EF9A"></path><path d="M26.3064 18.8891C25.6931 18.8891 25.1953 18.3913 25.1953 17.7779V4.44461C25.1953 3.83127 25.6931 3.3335 26.3064 3.3335C26.9198 3.3335 27.4175 3.83127 27.4175 4.44461V17.7779C27.4175 18.3913 26.9198 18.8891 26.3064 18.8891Z" fill="#D2EF9A"></path><path d="M56.303 56.667C55.6896 56.667 55.1918 56.1692 55.1918 55.5559V51.1114C55.1918 44.3714 49.7074 38.8892 42.9696 38.8892H38.5252C37.9118 38.8892 37.4141 38.3914 37.4141 37.7781C37.4141 37.1648 37.9118 36.667 38.5252 36.667H42.9696C50.9341 36.667 57.4141 43.147 57.4141 51.1114V55.5559C57.4141 56.1692 56.9163 56.667 56.303 56.667Z" fill="#D2EF9A"></path><path d="M46.3029 45.556C46.0474 45.556 45.7896 45.4671 45.5807 45.2871L37.803 38.6204C37.5541 38.4115 37.4141 38.1026 37.4141 37.7782C37.4141 37.4537 37.5541 37.1449 37.803 36.936L45.5807 30.2693C46.0452 29.8715 46.7429 29.9226 47.1474 30.3893C47.5474 30.8537 47.4918 31.556 47.0252 31.956L40.2341 37.7782L47.0274 43.6026C47.4941 44.0026 47.5474 44.7026 47.1496 45.1693C46.9252 45.4249 46.6163 45.556 46.3029 45.556Z" fill="#D2EF9A"></path></svg>