<svg xmlns="http://www.w3.org/2000/svg" width="61" height="60" viewBox="0 0 61 60" fill="none"><path d="M57.8977 33.22C57.5811 32.0731 57.283 30.989 57.283 29.9998C57.283 29.0106 57.5811 27.9266 57.8977 26.7797C58.4015 24.954 58.9213 23.0656 58.2992 21.2301C57.6538 19.3206 56.0451 18.0727 54.4893 16.868C53.5569 16.1448 52.6761 15.4624 52.1046 14.7109C51.5232 13.9447 51.1118 12.9222 50.6782 11.8394C49.9625 10.0606 49.2234 8.22013 47.5679 7.06462C45.9395 5.92636 43.907 5.81672 41.9448 5.71201C40.7204 5.64672 39.5625 5.58389 38.5931 5.28208C37.6865 4.99998 36.7479 4.41484 35.7551 3.7952C34.1575 2.79737 32.3455 1.6665 30.2502 1.6665C28.155 1.6665 26.343 2.79737 24.7454 3.79643C23.7525 4.41607 22.8164 5.00245 21.9086 5.28332C20.9379 5.58513 19.78 5.64795 18.5556 5.71324C16.5922 5.81918 14.5622 5.92759 12.9325 7.06585C11.277 8.22136 10.5379 10.0606 9.82227 11.8394C9.38622 12.9222 8.9748 13.9459 8.3934 14.7122C7.82185 15.4661 6.94112 16.1485 6.00866 16.8729C4.45414 18.0789 2.84789 19.3243 2.20244 21.2313C1.58038 23.068 2.1002 24.9553 2.60277 26.7822C2.91934 27.929 3.21743 29.0119 3.21743 30.0011C3.21743 30.9903 2.91934 32.0743 2.60277 33.2212C2.1002 35.0469 1.58038 36.9353 2.20244 38.7733C2.84789 40.6803 4.45537 41.9282 6.00989 43.1329C6.94235 43.8548 7.82308 44.5385 8.3934 45.29C8.97603 46.0562 9.38745 47.0787 9.82227 48.1627C10.5379 49.9416 11.2782 51.782 12.935 52.94C14.5622 54.0758 16.5934 54.1842 18.5556 54.2889C19.78 54.3542 20.9379 54.417 21.9073 54.7188C22.8139 55.0009 23.7513 55.5861 24.7429 56.2045C26.3418 57.2011 28.1537 58.3332 30.2502 58.3332C32.3467 58.3332 34.1599 57.2011 35.76 56.2032C36.7516 55.5848 37.6878 54.9997 38.5956 54.7176C39.565 54.4158 40.7229 54.353 41.9473 54.2877C43.9107 54.1829 45.9407 54.0745 47.5679 52.9387C49.2271 51.7808 49.9662 49.9379 50.6819 48.1578C51.1167 47.0762 51.5269 46.0537 52.1058 45.29C52.6774 44.5385 53.5581 43.8548 54.4906 43.1329C56.0463 41.9269 57.6538 40.6803 58.3005 38.7721C58.9225 36.9341 58.4015 35.0469 57.8977 33.22ZM55.9661 37.9824C55.5584 39.1872 54.3056 40.1579 52.9802 41.1853C51.964 41.9737 50.9121 42.7893 50.1434 43.7994C49.3637 44.8293 48.871 46.0537 48.3943 47.2401C47.787 48.7528 47.213 50.1806 46.1574 50.9172C45.1054 51.6514 43.5078 51.7364 41.8153 51.8264C40.4936 51.8966 39.1251 51.9693 37.8613 52.3635C36.6529 52.7416 35.5344 53.4377 34.4542 54.1127C33.0068 55.0169 31.6408 55.8694 30.2501 55.8694C28.8594 55.8694 27.4946 55.0169 26.0472 54.1127C24.9682 53.4389 23.8509 52.7416 22.6413 52.3635C21.3775 51.9705 20.009 51.8966 18.6873 51.8264C16.9948 51.7364 15.396 51.6502 14.3452 50.9172C13.2908 50.1806 12.7156 48.7528 12.1083 47.2413C11.6316 46.055 11.1377 44.8293 10.3567 43.7994C9.58931 42.7893 8.53736 41.9737 7.51991 41.1841C6.19574 40.1567 4.94424 39.1872 4.53652 37.9824C4.1559 36.8602 4.55623 35.409 4.97873 33.8741C5.32363 32.6188 5.68085 31.3229 5.68085 29.9986C5.68085 28.6743 5.32363 27.3796 4.97873 26.1243C4.555 24.5894 4.1559 23.1395 4.53652 22.0172C4.94424 20.8124 6.1945 19.843 7.51867 18.8156C8.53613 18.0259 9.58931 17.2092 10.3555 16.1978C11.1389 15.168 11.6316 13.941 12.1095 12.7547C12.7156 11.2432 13.2896 9.81665 14.3428 9.08245C15.3947 8.34701 16.9948 8.26201 18.6885 8.17208C20.009 8.10063 21.3775 8.02795 22.6401 7.63375C23.8509 7.25679 24.9694 6.55832 26.0509 5.88324C27.4958 4.98274 28.8606 4.13027 30.2501 4.13027C31.6395 4.13027 33.0056 4.98274 34.4517 5.88571C35.5332 6.56201 36.6504 7.25926 37.8613 7.63621C39.1239 8.02918 40.4911 8.10187 41.8129 8.17332C43.5066 8.26324 45.1054 8.35071 46.1574 9.08491C47.2118 9.82158 47.7858 11.2481 48.3918 12.7572C48.8698 13.9447 49.3612 15.1704 50.1447 16.2003C50.9121 17.2104 51.964 18.0259 52.9802 18.8143C54.3056 19.843 55.5584 20.8137 55.9661 22.0209C56.3467 23.1407 55.9451 24.5906 55.5226 26.1256C55.1765 27.3808 54.8193 28.6768 54.8193 30.0011C54.8193 31.3253 55.1753 32.6213 55.5226 33.8753C55.9465 35.4103 56.3467 36.8602 55.9661 37.9824Z" fill="#D2EF9A"></path><path d="M30.2502 11.521C20.0621 11.521 11.7734 19.8103 11.7734 29.9993C11.7734 40.1882 20.0621 48.4775 30.2502 48.4775C40.4384 48.4775 48.727 40.1882 48.727 29.9993C48.727 19.8103 40.4384 11.521 30.2502 11.521ZM30.2502 46.0138C21.4208 46.0138 14.237 38.8294 14.237 29.9993C14.237 21.1691 21.4208 13.9848 30.2502 13.9848C34.8042 13.9848 38.9097 15.9053 41.829 18.9677L30.0901 35.4885L23.7304 29.1283C23.2488 28.6467 22.4703 28.6467 21.9886 29.1283C21.507 29.61 21.507 30.3885 21.9886 30.8702L29.3794 38.2615C29.6109 38.4943 29.925 38.6224 30.2502 38.6224C30.2835 38.6224 30.3192 38.6212 30.3537 38.6175C30.7146 38.588 31.0447 38.3995 31.2541 38.1038L43.4451 20.9461C45.2189 23.5232 46.2635 26.6399 46.2635 29.9993C46.2635 38.8294 39.0797 46.0138 30.2502 46.0138Z" fill="#D2EF9A"></path></svg>