<svg xmlns="http://www.w3.org/2000/svg" width="61" height="60" viewBox="0 0 61 60" fill="none"><path d="M54.6905 5H36.2588C35.8441 5 35.5081 5.33365 35.5081 5.74543C35.5081 6.15721 35.8441 6.49086 36.2588 6.49086H54.6905C55.8247 6.49086 56.7475 7.40714 56.7475 8.53334V27.7288C56.7475 28.855 55.8247 29.7713 54.6905 29.7713H51.7465C51.5883 29.7713 51.4342 29.8209 51.3061 29.913L46.1869 33.5945V30.5167C46.1869 30.1049 45.8508 29.7713 45.4361 29.7713H29.1406C28.0063 29.7713 27.0835 28.855 27.0835 27.7288V8.53334C27.0835 7.40714 28.0064 6.49086 29.1406 6.49086H32.9875C33.4022 6.49086 33.7383 6.15721 33.7383 5.74543C33.7383 5.33365 33.4022 5 32.9875 5H29.1406C27.1783 5 25.582 6.58498 25.582 8.53334V27.7288C25.582 29.6771 27.1784 31.2621 29.1406 31.2621H44.6853V35.0549C44.6853 35.335 44.8435 35.5914 45.0948 35.7188C45.361 35.8448 45.6216 35.8248 45.8766 35.6587L51.9898 31.2622H54.6905C56.6528 31.2622 58.2491 29.6772 58.2491 27.7289V8.53334C58.2491 6.58508 56.6527 5 54.6905 5Z" fill="#D2EF9A" stroke="#D2EF9A" stroke-width="0.4"></path><path d="M49.8913 45.6876C49.7202 44.4651 49.0007 43.4257 47.915 42.8341L44.2672 40.8467C43.8695 40.6296 43.3713 40.7766 43.1545 41.1747C42.938 41.5725 43.0847 42.0707 43.4826 42.2874L47.1299 44.2746C47.754 44.6146 48.1675 45.2115 48.2664 45.9136C48.2669 45.918 48.2675 45.9225 48.2681 45.9269C48.3638 46.6361 48.1225 47.3278 47.6062 47.8242L47.0686 48.3404L33.6022 40.7631L35.1848 39.371C35.8599 38.777 36.8427 38.6673 37.6312 39.098L39.9072 40.3384C40.305 40.5551 40.8032 40.4085 41.02 40.0106C41.2367 39.6128 41.0901 39.1146 40.6922 38.8978L38.4168 37.6577C37.0263 36.8985 35.2917 37.0917 34.1014 38.1391L30.4133 41.3831C29.6578 42.0475 28.5553 42.1092 27.7323 41.5327C22.1771 37.641 18.143 33.3596 15.3993 28.4443C14.9367 27.6144 15.0659 26.5909 15.7207 25.8976L18.6401 22.81C19.7286 21.6574 19.9838 19.9308 19.2751 18.5134L14.3623 8.68794C13.8151 7.59194 12.8099 6.83695 11.6048 6.61646C10.3989 6.39553 9.19087 6.74628 8.29009 7.57805L6.42423 9.30184C4.36171 11.2071 2.99677 13.671 2.47704 16.4269C1.95632 19.1874 2.33529 21.9721 3.57282 24.4809C3.57829 24.4924 3.58343 24.5025 3.5877 24.5108C4.37189 26.0967 5.21984 27.6475 6.10639 29.1175C6.25437 29.3649 6.41395 29.6263 6.58041 29.8946C6.81938 30.2794 7.325 30.3977 7.70999 30.1588C8.09486 29.9199 8.2132 29.4141 7.97434 29.0292C7.81258 28.7686 7.65771 28.5149 7.51279 28.2727C6.6492 26.8407 5.82433 25.3323 5.06103 23.7892C5.05676 23.7802 5.05239 23.7715 5.04791 23.7627C2.89155 19.3996 3.855 14.046 7.37859 10.6598L14.7761 24.509L14.5284 24.771C13.379 25.9876 13.1531 27.785 13.9665 29.2437C16.8337 34.3803 21.0285 38.8396 26.791 42.8766C27.4525 43.3397 28.2164 43.5683 28.9778 43.5683C29.8798 43.5683 30.7779 43.2472 31.4968 42.6149L32.2971 41.911L45.8326 49.5272L45.8189 49.5403C42.33 52.8923 37.1035 53.6551 32.8137 51.4384C23.5155 46.6322 15.9566 40.2789 10.3471 32.5554C10.0808 32.1887 9.56787 32.1073 9.20137 32.3737C8.83476 32.64 8.75349 33.1528 9.0197 33.5195C14.7809 41.4519 22.5329 47.9712 32.0603 52.8961C33.9357 53.8651 35.9664 54.3372 37.9839 54.3372C41.2524 54.3372 44.4848 53.0972 46.9551 50.7238L48.7427 49.0073C49.6343 48.15 50.0543 46.9584 49.8973 45.7341C49.8958 45.7184 49.8937 45.7031 49.8913 45.6876ZM8.6217 9.50516L9.40326 8.7832C9.92124 8.30493 10.6157 8.10358 11.3095 8.23023C12.0022 8.35699 12.58 8.79097 12.8948 9.42138L17.8077 19.2472C18.2096 20.0509 18.0648 21.03 17.4477 21.6833L15.9645 23.252L8.6217 9.50516Z" fill="#D2EF9A" stroke="#D2EF9A" stroke-width="0.4"></path><path d="M52.1057 18.4904C52.1057 16.9104 50.8203 15.625 49.2403 15.625C47.6604 15.625 46.375 16.9104 46.375 18.4904C46.375 20.0703 47.6604 21.3557 49.2403 21.3557C50.8203 21.3557 52.1057 20.0703 52.1057 18.4904ZM48.0155 18.4904C48.0155 17.815 48.5648 17.2656 49.2402 17.2656C49.9155 17.2656 50.465 17.815 50.465 18.4904C50.465 19.1658 49.9155 19.7151 49.2402 19.7151C48.5648 19.7151 48.0155 19.1658 48.0155 18.4904Z" fill="#D2EF9A"></path><path d="M44.5119 18.4904C44.5119 16.9104 43.2265 15.625 41.6466 15.625C40.0667 15.625 38.7812 16.9104 38.7812 18.4904C38.7812 20.0703 40.0667 21.3557 41.6466 21.3557C43.2265 21.3557 44.5119 20.0703 44.5119 18.4904ZM40.4217 18.4904C40.4217 17.815 40.9712 17.2656 41.6465 17.2656C42.3219 17.2656 42.8713 17.815 42.8713 18.4904C42.8713 19.1658 42.3219 19.7151 41.6465 19.7151C40.9712 19.7151 40.4217 19.1658 40.4217 18.4904Z" fill="#D2EF9A"></path><path d="M31.1836 18.4904C31.1836 20.0703 32.4689 21.3557 34.049 21.3557C35.6291 21.3557 36.9144 20.0703 36.9144 18.4904C36.9144 16.9104 35.629 15.625 34.049 15.625C32.469 15.625 31.1836 16.9104 31.1836 18.4904ZM34.049 17.2656C34.7244 17.2656 35.2738 17.815 35.2738 18.4904C35.2738 19.1658 34.7244 19.7151 34.049 19.7151C33.3736 19.7151 32.8243 19.1658 32.8243 18.4904C32.8243 17.815 33.3736 17.2656 34.049 17.2656Z" fill="#D2EF9A"></path></svg>