<svg xmlns="http://www.w3.org/2000/svg" width="61" height="60" viewBox="0 0 61 60" fill="none"><path d="M48.2936 22.488H44.726L45.8009 10.0737C45.8029 10.0512 45.8032 10.0291 45.8033 10.0069C45.8033 10.005 45.8036 10.0033 45.8036 10.0014C45.8036 10.001 45.8036 10.0008 45.8036 10.0005C45.8036 9.66259 45.6009 9.36478 45.3031 9.23531C45.3005 9.23419 45.2981 9.23286 45.2955 9.23174C45.2771 9.22395 45.2579 9.21727 45.2387 9.21081C45.2315 9.20848 45.2246 9.20558 45.2174 9.20335C45.2017 9.19857 45.1855 9.19478 45.1695 9.19089C45.1582 9.18821 45.1473 9.18499 45.1359 9.18276C45.1219 9.17998 45.1073 9.17819 45.0929 9.17608C45.0794 9.17408 45.0661 9.17174 45.0525 9.17051C45.0502 9.17029 45.0481 9.16984 45.0457 9.16962C45.0311 9.16829 45.0168 9.16851 45.0023 9.16795C44.9925 9.16762 44.983 9.1665 44.9733 9.1665H44.9628C44.962 9.1665 44.9611 9.1665 44.9603 9.1665H27.9856C27.5274 9.1665 27.1555 9.54057 27.1555 10.0015C27.1555 10.4613 27.5274 10.8365 27.9856 10.8365H44.0685L42.4165 29.9156C42.4163 29.9171 42.4163 29.9185 42.416 29.92L41.9992 34.734H13.1557L13.6381 29.7244H19.1301C19.5886 29.7244 19.9601 29.3505 19.9601 28.8894C19.9601 28.4282 19.5886 28.0544 19.1301 28.0544H13.799L14.8177 17.4786H23.5585C24.017 17.4786 24.3886 17.1048 24.3886 16.6436C24.3886 16.1825 24.017 15.8087 23.5585 15.8087H14.9786L15.4577 10.8365H24.6653C25.1224 10.8365 25.4953 10.4613 25.4953 10.0015C25.4953 9.54057 25.1224 9.1665 24.6653 9.1665H14.7043C14.7038 9.1665 14.7035 9.16662 14.7031 9.16662C14.3131 9.1665 13.9749 9.4426 13.8931 9.82536C13.8926 9.82814 13.8916 9.83081 13.891 9.83359C13.8868 9.85441 13.884 9.87568 13.8813 9.89705C13.8805 9.90384 13.8791 9.9103 13.8784 9.91709C13.8783 9.91843 13.878 9.91965 13.8779 9.92099L13.3107 15.8087H3.24805C2.78951 15.8087 2.41797 16.1825 2.41797 16.6436C2.41797 17.1048 2.78951 17.4786 3.24805 17.4786H13.1498L12.1311 28.0544H9.16952C8.71098 28.0544 8.33944 28.4282 8.33944 28.8894C8.33944 29.3505 8.71098 29.7244 9.16952 29.7244H11.9703L11.4156 35.4824C11.4155 35.4833 11.4155 35.4842 11.4154 35.485L10.5577 44.3891C10.5576 44.3901 10.5575 44.3912 10.5574 44.3921L10.5571 44.3953C10.556 44.4069 10.5561 44.4182 10.5554 44.4298C10.5546 44.4452 10.5531 44.4602 10.5531 44.4758C10.5531 44.4765 10.5532 44.4771 10.5532 44.4779C10.5532 44.4994 10.5548 44.5205 10.5563 44.5417C10.557 44.5485 10.5568 44.5554 10.5575 44.5621C10.5597 44.5837 10.5634 44.6049 10.5673 44.6261C10.5684 44.6323 10.5689 44.6387 10.5701 44.6448C10.5734 44.6608 10.5779 44.6763 10.5821 44.692C10.585 44.703 10.5873 44.7143 10.5906 44.7251C10.5916 44.7281 10.5929 44.731 10.5938 44.7341C10.634 44.8583 10.7022 44.9699 10.7912 45.0609C10.7928 45.0626 10.7942 45.0645 10.7958 45.0661C10.8047 45.075 10.8143 45.083 10.8236 45.0914C10.8808 45.1442 10.9454 45.189 11.0162 45.224C11.0309 45.2314 11.0454 45.2391 11.0604 45.2454C11.065 45.2474 11.0699 45.2487 11.0745 45.2505C11.0953 45.2589 11.1162 45.2669 11.1378 45.2737C11.1398 45.2742 11.1417 45.2746 11.1437 45.2752C11.1682 45.2826 11.193 45.289 11.2184 45.2943C11.2217 45.2949 11.2251 45.2952 11.2283 45.2958C11.2525 45.3004 11.2767 45.3043 11.3014 45.3068C11.3019 45.3068 11.3024 45.3069 11.3029 45.307C11.3302 45.3096 11.3572 45.311 11.384 45.311C11.3843 45.311 11.3847 45.3109 11.3852 45.3109H15.0805C15.4885 48.4229 18.1409 50.8332 21.3445 50.8332C24.5478 50.8332 27.2002 48.4229 27.6083 45.3109H40.9227C41.3309 48.4229 43.9831 50.8332 47.1866 50.8332C50.3899 50.8332 53.0425 48.4229 53.4507 45.3109H57.1469C57.1474 45.3109 57.1481 45.311 57.1487 45.311C57.1763 45.311 57.2036 45.3093 57.2306 45.3066C57.2354 45.3062 57.2401 45.3052 57.245 45.3046C57.2665 45.3021 57.288 45.2991 57.309 45.2948C57.3181 45.2931 57.3269 45.2906 57.3358 45.2885C57.3521 45.2847 57.3685 45.2807 57.3844 45.2759C57.3953 45.2727 57.4058 45.2689 57.4164 45.2652C57.43 45.2606 57.4436 45.2556 57.457 45.2502C57.4685 45.2456 57.4795 45.2406 57.4907 45.2356C57.5028 45.2299 57.515 45.2241 57.5269 45.218C57.5381 45.2122 57.549 45.2062 57.5598 45.2C57.5712 45.1933 57.5825 45.1864 57.5937 45.1793C57.6041 45.1726 57.6145 45.1658 57.6245 45.1587C57.6358 45.1508 57.6465 45.1424 57.6574 45.134C57.6665 45.1267 57.6757 45.1196 57.6846 45.112C57.696 45.1023 57.7067 45.0922 57.7175 45.0819C57.7251 45.0746 57.7329 45.0675 57.7402 45.0599C57.7517 45.0481 57.7627 45.0357 57.7737 45.0231C57.7795 45.0163 57.7856 45.0097 57.7913 45.0028C57.8034 44.9877 57.8145 44.9721 57.8256 44.9564C57.8293 44.9509 57.8335 44.9458 57.8372 44.9403C57.8507 44.9199 57.8634 44.8989 57.8752 44.8773C57.876 44.876 57.8769 44.8748 57.8775 44.8733C57.89 44.8502 57.9015 44.8265 57.9118 44.802C57.9147 44.795 57.9169 44.7877 57.9196 44.7807C57.9264 44.7635 57.933 44.7462 57.9387 44.7283C57.9423 44.7167 57.945 44.7048 57.9482 44.6931C57.9519 44.6792 57.9557 44.6654 57.9588 44.6512C57.9616 44.6387 57.9634 44.6257 57.9655 44.6129C57.9673 44.6017 57.9698 44.5907 57.9712 44.5792C58.0064 44.2955 58.6564 39.0498 58.9467 35.6578C58.9471 35.6546 58.9472 35.6512 58.9475 35.648C59.0311 34.6702 59.0846 33.8468 59.0846 33.3427C59.0846 27.3575 54.2438 22.488 48.2936 22.488ZM44.5813 24.1582H47.9773L47.5435 29.1676H44.1476L44.5813 24.1582ZM21.3447 49.1631C18.7751 49.1631 16.6846 47.0603 16.6846 44.4757C16.6846 41.891 18.7752 39.7882 21.3447 39.7882C23.9142 39.7882 26.0047 41.891 26.0047 44.4757C26.0047 47.0603 23.9142 49.1631 21.3447 49.1631ZM47.1866 49.1631C44.6171 49.1631 42.5267 47.0603 42.5267 44.4757C42.5267 41.891 44.6172 39.7882 47.1866 39.7882C49.7562 39.7882 51.8467 41.891 51.8467 44.4757C51.8467 47.0603 49.7562 49.1631 47.1866 49.1631ZM56.4134 43.6404H53.4509C53.043 40.5281 50.3905 38.1177 47.1868 38.1177C43.9834 38.1177 41.3309 40.5282 40.9229 43.6404H27.6086C27.2007 40.5281 24.5483 38.1177 21.3447 38.1177C18.1411 38.1177 15.4885 40.5282 15.0806 43.6404H12.2977L12.9949 36.4035H42.7599V36.4039C42.7604 36.4039 42.7607 36.4039 42.7611 36.4039C42.7889 36.4039 42.8165 36.4024 42.8437 36.3996C42.8488 36.3991 42.8538 36.398 42.8589 36.3974C42.8806 36.3948 42.9021 36.3917 42.9234 36.3874C42.9326 36.3856 42.9415 36.383 42.9506 36.3808C42.9672 36.3768 42.9838 36.3729 43 36.368C43.0111 36.3646 43.0216 36.3606 43.0323 36.3568C43.0462 36.3519 43.0602 36.3471 43.0737 36.3416C43.0853 36.3368 43.0965 36.3314 43.1078 36.3261C43.1201 36.3204 43.1324 36.3147 43.1442 36.3085C43.1555 36.3025 43.1666 36.296 43.1777 36.2896C43.1891 36.2829 43.2004 36.2761 43.2115 36.269C43.2222 36.262 43.2324 36.2546 43.2427 36.2473C43.2537 36.2395 43.2643 36.2315 43.2749 36.2231C43.2844 36.2154 43.2938 36.2075 43.3031 36.1994C43.3136 36.1903 43.3239 36.1809 43.3339 36.1712C43.3423 36.1631 43.3507 36.1548 43.3589 36.1462C43.3689 36.1357 43.3785 36.1249 43.388 36.1139C43.3954 36.1052 43.4027 36.0965 43.4098 36.0876C43.419 36.0759 43.4278 36.0639 43.4364 36.0518C43.4429 36.0427 43.4492 36.0335 43.4554 36.0242C43.4635 36.0116 43.4712 35.9987 43.4787 35.9855C43.4843 35.9757 43.4901 35.9659 43.4952 35.9559C43.5021 35.9428 43.5081 35.9294 43.5144 35.916C43.5193 35.9052 43.5243 35.8946 43.5287 35.8835C43.5341 35.8703 43.5387 35.8568 43.5434 35.8434C43.5475 35.8315 43.5518 35.8195 43.5555 35.8073C43.5591 35.7944 43.5621 35.7811 43.5654 35.768C43.5686 35.7548 43.5722 35.7416 43.5747 35.7281C43.5773 35.715 43.5788 35.7017 43.5808 35.6883C43.5828 35.6745 43.5851 35.6609 43.5865 35.6469C43.5867 35.6449 43.5871 35.643 43.5872 35.641L44.0033 30.8371H48.2934C50.8366 30.8371 51.9837 32.1626 53.1979 33.566C54.1999 34.724 55.3185 36.0159 57.2199 36.3311C56.9784 38.8995 56.5881 42.1966 56.4134 43.6404ZM57.3618 34.6578C56.1283 34.4049 55.3694 33.5326 54.45 32.4701C53.3002 31.1414 51.8965 29.5198 49.2056 29.2177L49.635 24.2582C54.036 24.9129 57.4245 28.7369 57.4245 33.3429C57.4245 33.6559 57.4012 34.1105 57.3618 34.6578Z" fill="#D2EF9A" stroke="#D2EF9A" stroke-width="0.3"></path><path d="M18.8008 44.4756C18.8008 43.0608 19.9451 41.9141 21.3444 41.9141C22.7437 41.9141 23.8881 43.0609 23.8881 44.4756C23.8881 45.8905 22.7437 47.0372 21.3444 47.0372C19.9451 47.0372 18.8008 45.8905 18.8008 44.4756ZM19.4609 44.4756C19.4609 45.5164 20.3026 46.3673 21.3444 46.3673C22.3861 46.3673 23.2279 45.5164 23.2279 44.4756C23.2279 43.4349 22.3862 42.584 21.3444 42.584C20.3026 42.584 19.4609 43.4349 19.4609 44.4756Z" fill="#D2EF9A" stroke="#D2EF9A"></path><path d="M44.6445 44.4756C44.6445 43.0608 45.7889 41.9141 47.1882 41.9141C48.5875 41.9141 49.7318 43.0609 49.7318 44.4756C49.7318 45.8905 48.5875 47.0372 47.1882 47.0372C45.7889 47.0372 44.6445 45.8905 44.6445 44.4756ZM45.3047 44.4756C45.3047 45.5164 46.1464 46.3673 47.1882 46.3673C48.23 46.3673 49.0716 45.5164 49.0716 44.4756C49.0716 43.4349 48.23 42.584 47.1882 42.584C46.1464 42.584 45.3047 43.4349 45.3047 44.4756Z" fill="#D2EF9A" stroke="#D2EF9A"></path><path d="M10.2749 22.4883H6.2168C5.75826 22.4883 5.38672 22.8621 5.38672 23.3233C5.38672 23.7844 5.75826 24.1582 6.2168 24.1582H10.2749C10.7334 24.1582 11.105 23.7844 11.105 23.3233C11.105 22.8621 10.7334 22.4883 10.2749 22.4883Z" fill="#D2EF9A" stroke="#D2EF9A" stroke-width="0.3"></path></svg>